<svg xmlns="http://www.w3.org/2000/svg" viewBox="0 0 1200 800" role="img" aria-labelledby="title desc">
  <title id="title">Nothing Ear (a)</title>
  <desc id="desc">A budget audio product cover with transparent design cues.</desc>
  <defs>
    <linearGradient id="bg" x1="0" x2="1" y1="0" y2="1">
      <stop offset="0%" stop-color="#020617"/>
      <stop offset="100%" stop-color="#111827"/>
    </linearGradient>
  </defs>
  <rect width="1200" height="800" fill="url(#bg)"/>
  <rect x="110" y="90" width="980" height="620" rx="30" fill="#0f172a" stroke="#334155"/>
  <g opacity="0.9">
    <path d="M340 270 C370 230, 430 230, 460 270 L460 470 C430 510, 370 510, 340 470 Z" fill="#dbeafe" opacity="0.38"/>
    <path d="M730 270 C760 230, 820 230, 850 270 L850 470 C820 510, 760 510, 730 470 Z" fill="#dbeafe" opacity="0.38"/>
  </g>
  <circle cx="400" cy="360" r="120" fill="#0f172a" stroke="#475569"/>
  <circle cx="800" cy="360" r="120" fill="#0f172a" stroke="#475569"/>
  <circle cx="400" cy="360" r="55" fill="#a3e635" opacity="0.18"/>
  <circle cx="800" cy="360" r="55" fill="#a3e635" opacity="0.18"/>
  <text x="560" y="280" fill="#f8fafc" font-family="Arial, sans-serif" font-size="54" font-weight="700">Nothing Ear (a)</text>
  <text x="560" y="340" fill="#cbd5e1" font-family="Arial, sans-serif" font-size="30">ANC • Punchy Audio</text>
  <text x="560" y="395" fill="#94a3b8" font-family="Arial, sans-serif" font-size="24">Transparent design • Daily comfort</text>
  <rect x="560" y="440" width="220" height="50" rx="22" fill="#a3e635"/>
  <text x="615" y="473" fill="#0f172a" font-family="Arial, sans-serif" font-size="22" font-weight="700">Under $100</text>
</svg>
